<svg width="300" height="415" viewBox="0 0 300 415" fill="none" xmlns="http://www.w3.org/2000/svg">
<path d="M164.132 8.42007L224.205 43.1027H224.32L299.093 86.2734V177.816H240.293V120.061L194.92 93.8641L194.948 93.8161L149.547 67.6014L104.144 93.8161L104.173 93.8641L58.8 120.061V177.816H0V86.2734L74.7733 43.1027H74.888L149.547 6.53924e-05L164.132 8.42007ZM299.093 236.617V328.16L224.32 371.332H224.205L149.547 414.436L74.888 371.332H74.7733L0 328.16V236.617H58.8V294.373L104.173 320.569L104.144 320.62L149.547 346.832L194.948 320.62L194.92 320.569L240.293 294.373V236.617H299.093Z" fill="#004E82"/>
<path fill-rule="evenodd" clip-rule="evenodd" d="M89.6714 177.817V276.706L145.963 309.205L145.934 309.255L149.547 311.341L153.159 309.255L153.13 309.205L209.422 276.706V137.729L153.13 105.23L153.159 105.179L149.547 103.094L145.934 105.179L145.963 105.23L89.6714 137.729V177.817Z" fill="#FFDC00"/>
<path fill-rule="evenodd" clip-rule="evenodd" d="M209.422 137.729L153.131 105.231L153.159 105.18L149.547 103.093L145.934 105.18L145.963 105.231L89.6714 137.729L145.963 170.228L145.934 170.279L149.547 172.365L153.159 170.279L153.131 170.228L209.422 137.729Z" fill="#FFEC00"/>
<path fill-rule="evenodd" clip-rule="evenodd" d="M149.547 172.365V311.341L145.934 309.255L145.963 309.205L89.6709 276.705V137.729L145.963 170.229L145.934 170.279L149.547 172.365Z" fill="#FCC200"/>
<path d="M89.6714 137.729L145.963 170.228L145.934 170.279L149.547 172.365L153.159 170.279L153.13 170.228L209.422 137.729" stroke="#FFF164" stroke-width="0.756" stroke-miterlimit="22.926"/>
<mask id="mask0_133_571" style="mask-type:luminance" maskUnits="userSpaceOnUse" x="89" y="182" width="121" height="37">
<path d="M89.2998 182.423H209.793V218.562H89.2998V182.423Z" fill="white"/>
</mask>
<g mask="url(#mask0_133_571)">
<g opacity="0.5">
<mask id="mask1_133_571" style="mask-type:luminance" maskUnits="userSpaceOnUse" x="89" y="182" width="121" height="37">
<path d="M89.2998 218.562H209.794V182.423H89.2998V218.562Z" fill="white"/>
</mask>
<g mask="url(#mask1_133_571)">
<path d="M89.6714 183.068C109.63 194.592 129.654 206.217 149.547 217.704C169.439 206.219 189.462 194.592 209.422 183.068" stroke="#FFDC00" stroke-width="0.756" stroke-miterlimit="22.926"/>
</g>
</g>
</g>
<mask id="mask2_133_571" style="mask-type:luminance" maskUnits="userSpaceOnUse" x="89" y="228" width="121" height="37">
<path d="M89.2998 228.402H209.793V264.541H89.2998V228.402Z" fill="white"/>
</mask>
<g mask="url(#mask2_133_571)">
<g opacity="0.5">
<mask id="mask3_133_571" style="mask-type:luminance" maskUnits="userSpaceOnUse" x="89" y="228" width="121" height="37">
<path d="M89.2998 264.541H209.794V228.402H89.2998V264.541Z" fill="white"/>
</mask>
<g mask="url(#mask3_133_571)">
<path d="M89.6714 229.046C109.63 240.57 129.654 252.195 149.547 263.682C169.439 252.197 189.462 240.57 209.422 229.046" stroke="#FFDC00" stroke-width="0.756" stroke-miterlimit="22.926"/>
</g>
</g>
</g>
<path d="M89.6714 184.297C109.63 195.82 129.654 207.447 149.547 218.933C169.439 207.448 189.462 195.82 209.422 184.297" stroke="#FCC200" stroke-width="0.756" stroke-miterlimit="22.926"/>
<path d="M89.6714 230.275C109.63 241.799 129.654 253.425 149.547 264.911C169.439 253.426 189.462 241.799 209.422 230.275" stroke="#FCC200" stroke-width="0.756" stroke-miterlimit="22.926"/>
</svg>
