<svg width="1632" height="449" viewBox="0 0 1632 449" fill="none" xmlns="http://www.w3.org/2000/svg">
<path d="M164.192 9.19424L224.265 43.8769H224.38L299.153 87.0476V178.59H240.353V120.836L194.98 94.6382L195.008 94.5902L149.607 68.3756L104.204 94.5902L104.233 94.6382L58.8601 120.836V178.59H0.0600586V87.0476L74.8334 43.8769H74.9481L149.607 0.774231L164.192 9.19424ZM299.153 237.392V328.934L224.38 372.106H224.265L149.607 415.21L74.9481 372.106H74.8334L0.0600586 328.934V237.392H58.8601V295.148L104.233 321.344L104.204 321.394L149.607 347.606L195.008 321.394L194.98 321.344L240.353 295.148V237.392H299.153Z" fill="#004E82"/>
<path fill-rule="evenodd" clip-rule="evenodd" d="M89.7314 178.591V277.48L146.023 309.979L145.994 310.029L149.607 312.115L153.219 310.029L153.19 309.979L209.482 277.48V138.503L153.19 106.004L153.219 105.953L149.607 103.868L145.994 105.953L146.023 106.004L89.7314 138.503V178.591Z" fill="#FFDC00"/>
<path fill-rule="evenodd" clip-rule="evenodd" d="M209.482 138.503L153.191 106.005L153.219 105.954L149.607 103.867L145.994 105.954L146.023 106.005L89.7314 138.503L146.023 171.002L145.994 171.053L149.607 173.139L153.219 171.053L153.191 171.002L209.482 138.503Z" fill="#FFEC00"/>
<path fill-rule="evenodd" clip-rule="evenodd" d="M149.607 173.139V312.115L145.994 310.03L146.023 309.979L89.731 277.479V138.503L146.023 171.003L145.994 171.054L149.607 173.139Z" fill="#FCC200"/>
<path d="M89.7314 138.503L146.023 171.002L145.994 171.053L149.607 173.139L153.219 171.053L153.19 171.002L209.482 138.503" stroke="#FFF164" stroke-width="0.756" stroke-miterlimit="22.926"/>
<mask id="mask0_133_484" style="mask-type:luminance" maskUnits="userSpaceOnUse" x="89" y="183" width="121" height="37">
<path d="M89.3599 183.198H209.853V219.336H89.3599V183.198Z" fill="white"/>
</mask>
<g mask="url(#mask0_133_484)">
<g opacity="0.5">
<mask id="mask1_133_484" style="mask-type:luminance" maskUnits="userSpaceOnUse" x="89" y="183" width="121" height="37">
<path d="M89.3599 219.336H209.855V183.198H89.3599V219.336Z" fill="white"/>
</mask>
<g mask="url(#mask1_133_484)">
<path d="M89.7314 183.842C109.69 195.366 129.714 206.991 149.607 218.478C169.499 206.993 189.522 195.366 209.482 183.842" stroke="#FFDC00" stroke-width="0.756" stroke-miterlimit="22.926"/>
</g>
</g>
</g>
<mask id="mask2_133_484" style="mask-type:luminance" maskUnits="userSpaceOnUse" x="89" y="229" width="121" height="37">
<path d="M89.3599 229.176H209.853V265.315H89.3599V229.176Z" fill="white"/>
</mask>
<g mask="url(#mask2_133_484)">
<g opacity="0.5">
<mask id="mask3_133_484" style="mask-type:luminance" maskUnits="userSpaceOnUse" x="89" y="229" width="121" height="37">
<path d="M89.3599 265.315H209.855V229.176H89.3599V265.315Z" fill="white"/>
</mask>
<g mask="url(#mask3_133_484)">
<path d="M89.7314 229.82C109.69 241.344 129.714 252.969 149.607 264.456C169.499 252.971 189.522 241.344 209.482 229.82" stroke="#FFDC00" stroke-width="0.756" stroke-miterlimit="22.926"/>
</g>
</g>
</g>
<path d="M89.7314 185.072C109.69 196.594 129.714 208.221 149.607 219.708C169.499 208.222 189.522 196.594 209.482 185.072" stroke="#FCC200" stroke-width="0.756" stroke-miterlimit="22.926"/>
<path d="M89.7314 231.05C109.69 242.574 129.714 254.199 149.607 265.686C169.499 254.2 189.522 242.574 209.482 231.05" stroke="#FCC200" stroke-width="0.756" stroke-miterlimit="22.926"/>
<path d="M1601.06 204.144C1604.56 206.114 1608.06 208.522 1611.57 211.37C1615.07 214.217 1618.3 217.72 1621.26 221.88C1624.21 226.041 1626.62 230.858 1628.48 236.332C1630.34 241.806 1631.27 248.046 1631.27 255.054C1631.27 269.286 1629.03 281.056 1624.54 290.362C1620.05 299.668 1613.98 307.113 1606.31 312.697C1598.65 318.28 1589.83 322.221 1579.87 324.521C1569.91 326.82 1559.45 327.97 1548.5 327.97H1444.39C1442.2 327.97 1440.33 327.204 1438.8 325.67C1437.27 324.138 1436.5 322.277 1436.5 320.088V95.4264C1436.5 93.2371 1437.27 91.3757 1438.8 89.8424C1440.33 88.3104 1442.2 87.5437 1444.39 87.5437H1543.58C1554.09 87.5437 1564.16 88.6931 1573.8 90.9917C1583.43 93.2904 1591.92 97.0691 1599.25 102.324C1606.59 107.58 1612.5 114.421 1616.99 122.852C1621.48 131.282 1623.72 141.629 1623.72 153.89C1623.72 163.745 1621.26 172.284 1616.33 179.51C1611.4 186.736 1606.09 192.429 1600.4 196.589C1596.46 199.436 1596.68 201.954 1601.06 204.144ZM449.678 95.0984C450.554 93.1278 452.031 91.4291 454.113 90.0064C456.193 88.5838 458.437 87.8731 460.845 87.8731H506.829C509.018 87.8731 511.154 88.5838 513.234 90.0064C515.314 91.4291 516.791 93.1278 517.667 95.0984L613.574 318.445C614.451 320.416 614.287 322.496 613.083 324.685C611.878 326.876 609.525 327.97 606.021 327.97H549.855C547.446 327.97 545.203 327.258 543.122 325.834C541.042 324.412 539.454 322.714 538.359 320.744L529.491 301.037C528.397 299.066 526.81 297.369 524.729 295.945C522.65 294.522 520.514 293.812 518.323 293.812H449.021C446.613 293.812 444.369 294.522 442.287 295.945C440.209 297.369 438.729 299.066 437.854 301.037L428.657 320.744C427.781 322.714 426.303 324.412 424.223 325.834C422.143 327.258 420.009 327.97 417.818 327.97H361.325C360.23 327.97 359.079 327.752 357.875 327.313C356.671 326.876 355.686 326.218 354.919 325.342C354.153 324.466 353.661 323.372 353.442 322.058C353.223 320.744 353.551 319.212 354.427 317.46L449.678 95.0984ZM469.057 237.974H498.289C500.478 237.974 502.066 237.262 503.051 235.838C504.037 234.416 503.982 232.718 502.887 230.748C500.697 225.274 498.07 218.869 495.005 211.533C491.938 204.198 489.091 197.356 486.465 191.005C485.589 189.034 484.603 188.05 483.509 188.05C482.413 188.05 481.429 189.034 480.553 191.005L464.13 230.748C463.254 232.718 463.254 234.416 464.13 235.838C465.006 237.262 466.647 237.974 469.057 237.974ZM829.022 275.417V320.088C829.022 322.276 828.257 324.138 826.723 325.67C825.191 327.204 823.322 327.97 821.139 327.97H648.195C645.794 327.97 643.87 327.204 642.447 325.67C641.023 324.138 640.311 322.277 640.311 320.088V95.4264C640.311 93.2371 641.023 91.3757 642.447 89.8424C643.87 88.3104 645.786 87.5437 648.195 87.5437H697.462C699.651 87.5437 701.513 88.3104 703.046 89.8424C704.579 91.3757 705.345 93.2437 705.345 95.4264V259.652C705.345 261.834 706.057 263.702 707.481 265.236C708.903 266.769 710.819 267.534 713.229 267.534H821.139C823.33 267.534 825.191 268.301 826.723 269.834C828.257 271.366 829.022 273.229 829.022 275.417ZM1125.13 95.7557V320.088C1125.13 322.277 1124.36 324.138 1122.83 325.67C1121.3 327.204 1119.49 327.97 1117.3 327.97H1067.93C1065.74 327.97 1063.93 327.204 1062.4 325.67C1060.86 324.138 1060.1 322.277 1060.1 320.088V214.326C1060.1 212.136 1059.11 210.932 1057.14 210.713C1055.75 210.552 1054.51 210.898 1053.44 211.734C1043.01 217.758 1032.57 223.784 1022.14 229.808C1013.74 234.656 1005.45 239.532 997.094 244.429C990.442 248.326 988.295 245.696 982.226 242.045C968.945 234.054 955.003 226.293 941.539 218.518C937.366 216.109 933.193 213.7 929.021 211.292C928.183 210.781 927.206 210.589 926.089 210.713C924.119 210.932 923.133 212.136 923.133 214.326V320.088C923.133 322.277 922.367 324.138 920.834 325.67C919.302 327.204 917.495 327.97 915.306 327.97H865.929C863.739 327.97 861.933 327.204 860.399 325.67C858.867 324.138 858.099 322.277 858.099 320.088V95.7557C858.099 93.5651 858.742 91.5677 860.399 90.1704C863.375 87.6637 866.474 88.0611 870.289 90.2651C875.246 93.1264 880.205 95.9877 885.161 98.8517C916.454 116.917 947.889 134.88 979.093 153.085C983.083 155.413 988.593 159.918 993.185 158.958C995.898 158.392 1005.71 152.172 1008.87 150.352C1019.32 144.314 1029.78 138.278 1040.24 132.241C1055.92 123.186 1071.6 114.132 1087.29 105.077C1092.52 102.058 1097.74 99.0397 1102.97 96.0211C1107.68 93.3051 1112.38 90.5878 1117.09 87.8731H1117.3C1119.49 87.8731 1121.3 88.6384 1122.83 90.1704C1124.36 91.7037 1125.13 93.5651 1125.13 95.7557ZM1154.04 207.757C1154.04 190.677 1157.32 174.582 1163.89 159.474C1170.46 144.366 1179.32 131.173 1190.49 119.896C1201.66 108.62 1214.8 99.6971 1229.91 93.1277C1245.02 86.5584 1261.11 83.2744 1278.19 83.2744C1295.27 83.2744 1311.36 86.5584 1326.47 93.1277C1341.58 99.6971 1354.77 108.62 1366.05 119.896C1377.33 131.173 1386.25 144.366 1392.82 159.474C1399.39 174.582 1402.67 190.677 1402.67 207.757C1402.67 224.836 1399.39 240.93 1392.82 256.04C1386.25 271.148 1377.33 284.34 1366.05 295.617C1354.77 306.893 1341.58 315.817 1326.47 322.386C1311.36 328.956 1295.27 332.24 1278.19 332.24C1261.11 332.24 1245.02 328.956 1229.91 322.386C1214.8 315.817 1201.66 306.893 1190.49 295.617C1179.32 284.34 1170.46 271.148 1163.89 256.04C1157.32 240.93 1154.04 224.836 1154.04 207.757ZM1219.07 207.757C1219.07 216.078 1220.6 223.961 1223.67 231.405C1226.73 238.85 1230.95 245.42 1236.31 251.112C1241.68 256.805 1247.97 261.349 1255.2 264.742C1262.42 268.137 1270.09 269.834 1278.19 269.834C1286.29 269.834 1293.95 268.137 1301.18 264.742C1308.41 261.349 1314.76 256.805 1320.23 251.112C1325.7 245.42 1329.97 238.85 1333.04 231.405C1336.1 223.961 1337.64 216.078 1337.64 207.757C1337.64 199.656 1336.1 191.826 1333.04 184.272C1329.97 176.718 1325.7 170.149 1320.23 164.565C1314.76 158.981 1308.41 154.492 1301.18 151.098C1293.95 147.705 1286.29 146.008 1278.19 146.008C1270.09 146.008 1262.42 147.705 1255.2 151.098C1247.97 154.492 1241.68 158.981 1236.31 164.565C1230.95 170.149 1226.73 176.718 1223.67 184.272C1220.6 191.826 1219.07 199.656 1219.07 207.757ZM1509.42 178.853H1539.96C1544.34 178.853 1547.85 177.156 1550.47 173.762C1553.1 170.368 1554.42 166.59 1554.42 162.43C1554.42 158.489 1552.83 155.094 1549.65 152.249C1546.48 149.402 1543.47 147.978 1540.62 147.978H1509.42C1507.23 147.978 1505.37 148.745 1503.84 150.277C1502.3 151.81 1501.54 153.672 1501.54 155.862V170.97C1501.54 173.16 1502.3 175.021 1503.84 176.554C1505.37 178.086 1507.23 178.853 1509.42 178.853ZM1543.91 233.048H1509.42C1507.23 233.048 1505.37 233.814 1503.84 235.346C1502.3 236.88 1501.54 238.741 1501.54 240.93V259.652C1501.54 261.842 1502.3 263.702 1503.84 265.236C1505.37 266.769 1507.23 267.534 1509.42 267.534H1546.2C1550.15 267.534 1553.87 265.893 1557.37 262.608C1560.88 259.324 1562.63 255.492 1562.63 251.112C1562.63 247.172 1560.93 243.174 1557.54 239.124C1554.14 235.073 1549.6 233.048 1543.91 233.048Z" fill="#004E82"/>
<path d="M458.436 402.232H466.332V425.484C460.576 430.51 452.599 433.064 444.536 433.064C426.853 433.064 413.857 420.202 413.857 402.574C413.857 384.942 426.853 372.082 444.703 372.082C453.831 372.082 461.563 375.234 466.827 381.279L461.727 386.562C456.957 381.792 451.527 379.663 445.031 379.663C431.707 379.663 422.084 389.286 422.084 402.574C422.084 415.69 431.707 425.484 444.948 425.484C449.8 425.484 454.325 424.376 458.436 421.65V402.232Z" fill="#575756"/>
<path d="M486.131 406.661H514.095C513.273 399.081 507.763 393.717 500.114 393.717C492.546 393.717 486.954 398.995 486.131 406.661ZM521.497 412.537H486.131C487.118 420.458 493.286 425.741 501.923 425.741C507.022 425.741 511.299 423.951 514.506 420.289L518.865 425.569C514.918 430.338 508.914 432.893 501.677 432.893C487.613 432.893 478.235 423.27 478.235 409.813C478.235 396.441 487.53 386.818 500.114 386.818C512.697 386.818 521.661 396.185 521.661 410.069C521.661 410.749 521.579 411.771 521.497 412.537Z" fill="#575756"/>
<path d="M528.873 427.613L532.163 421.14C535.863 423.867 541.786 425.824 547.461 425.824C554.782 425.824 557.823 423.525 557.823 419.692C557.823 409.556 530.271 418.328 530.271 400.359C530.271 392.268 537.263 386.817 548.449 386.817C554.123 386.817 560.538 388.349 564.323 390.905L560.95 397.379C557.001 394.736 552.642 393.801 548.365 393.801C541.458 393.801 538.086 396.44 538.086 400.017C538.086 410.664 565.719 401.976 565.719 419.523C565.719 427.697 558.482 432.892 546.886 432.892C539.649 432.892 532.491 430.593 528.873 427.613Z" fill="#575756"/>
<path d="M601.964 429.743C599.581 431.872 595.963 432.892 592.425 432.892C583.625 432.892 578.608 427.87 578.608 418.756V393.97H571.204V387.243H578.608V377.363H586.503V387.243H599.004V393.97H586.503V418.416C586.503 423.27 588.971 425.994 593.331 425.994C595.632 425.994 597.853 425.227 599.499 423.867L601.964 429.743Z" fill="#575756"/>
<path d="M641.663 418.585V412.283H629.49C621.676 412.283 619.458 415.433 619.458 419.266C619.458 423.779 623.075 426.59 629.08 426.59C635 426.59 639.69 423.779 641.663 418.585ZM622.088 380.003H617.648C617.812 373.701 620.936 369.611 625.707 369.611C630.971 369.611 633.603 375.403 636.646 375.403C639.031 375.403 640.676 373.445 640.84 370.293H645.282C645.118 376.341 641.991 380.429 637.222 380.429C631.958 380.429 629.326 374.721 626.282 374.721C623.898 374.721 622.254 376.682 622.088 380.003ZM649.559 405.127V432.382H642.074V426.422C639.442 430.509 634.59 432.893 627.763 432.893C617.894 432.893 611.643 427.442 611.643 419.607C611.643 412.367 616.167 406.406 629.162 406.406H641.663V404.787C641.663 397.889 637.799 393.885 629.984 393.885C624.803 393.885 619.539 395.758 616.167 398.739L612.876 392.609C617.399 388.859 623.898 386.817 630.89 386.817C642.814 386.817 649.559 392.778 649.559 405.127Z" fill="#575756"/>
<path d="M700.278 409.813C700.278 400.187 694.027 393.97 685.639 393.97C677.25 393.97 670.916 400.187 670.916 409.813C670.916 419.435 677.25 425.739 685.639 425.739C694.027 425.739 700.278 419.435 700.278 409.813ZM662.939 409.813C662.939 396.355 672.562 386.818 685.639 386.818C698.716 386.818 708.258 396.355 708.258 409.813C708.258 423.27 698.716 432.893 685.639 432.893C672.562 432.893 662.939 423.27 662.939 409.813Z" fill="#575756"/>
<path d="M793.025 409.813C793.025 400.274 786.693 393.97 778.302 393.97C769.997 393.97 763.661 400.274 763.661 409.813C763.661 419.435 769.997 425.739 778.302 425.739C786.693 425.739 793.025 419.435 793.025 409.813ZM801.002 409.813C801.002 423.695 791.707 432.893 778.961 432.893C772.793 432.893 767.365 430.425 763.746 425.569V448.905H755.85V387.243H763.415V394.395C766.951 389.373 772.546 386.818 778.961 386.818C791.707 386.818 801.002 396.015 801.002 409.813Z" fill="#575756"/>
<path d="M841.939 418.585V412.283H829.766C821.953 412.283 819.734 415.433 819.734 419.266C819.734 423.779 823.351 426.59 829.357 426.59C835.277 426.59 839.966 423.779 841.939 418.585ZM849.835 405.127V432.382H842.349V426.422C839.718 430.509 834.866 432.893 828.039 432.893C818.17 432.893 811.919 427.442 811.919 419.607C811.919 412.367 816.443 406.406 829.438 406.406H841.939V404.787C841.939 397.889 838.075 393.885 830.261 393.885C825.079 393.885 819.815 395.758 816.443 398.739L813.153 392.609C817.675 388.859 824.174 386.817 831.166 386.817C843.09 386.817 849.835 392.778 849.835 405.127Z" fill="#575756"/>
<path d="M890.685 386.817V394.736C890.027 394.652 889.453 394.652 888.876 394.652C880.407 394.652 875.143 400.017 875.143 409.897V432.383H867.247V387.243H874.812V394.823C877.608 389.541 883.039 386.817 890.685 386.817Z" fill="#575756"/>
<path d="M928.903 418.585V412.283H916.729C908.916 412.283 906.697 415.433 906.697 419.266C906.697 423.779 910.315 426.59 916.32 426.59C922.24 426.59 926.929 423.779 928.903 418.585ZM936.799 405.127V432.382H929.313V426.422C926.681 430.509 921.829 432.893 915.003 432.893C905.133 432.893 898.883 427.442 898.883 419.607C898.883 412.367 903.407 406.406 916.401 406.406H928.903V404.787C928.903 397.889 925.039 393.885 917.224 393.885C912.043 393.885 906.779 395.758 903.407 398.739L900.116 392.609C904.639 388.859 911.137 386.817 918.129 386.817C930.053 386.817 936.799 392.778 936.799 405.127Z" fill="#575756"/>
<path d="M1022.96 410.664L1010.54 381.452L998.125 410.664H1022.96ZM1025.84 417.478H995.246L988.914 432.382H980.442L1006.51 372.764H1014.66L1040.81 432.382H1032.18L1025.84 417.478Z" fill="#575756"/>
<path d="M1052.88 369.185H1060.78V432.383H1052.88V369.185Z" fill="#575756"/>
<path d="M1153.52 406.407V432.383H1145.62V407.343C1145.62 398.485 1141.51 394.141 1134.35 394.141C1126.46 394.141 1121.28 399.336 1121.28 409.131V432.383H1113.38V407.343C1113.38 398.485 1109.27 394.141 1102.11 394.141C1094.22 394.141 1089.04 399.336 1089.04 409.131V432.383H1081.14V387.243H1088.71V393.969C1091.83 389.372 1097.18 386.817 1103.76 386.817C1110.42 386.817 1116.01 389.541 1118.89 395.164C1122.18 390.053 1128.27 386.817 1135.67 386.817C1146.28 386.817 1153.52 393.119 1153.52 406.407Z" fill="#575756"/>
<path d="M1203.51 409.813C1203.51 400.187 1197.26 393.97 1188.87 393.97C1180.48 393.97 1174.15 400.187 1174.15 409.813C1174.15 419.435 1180.48 425.739 1188.87 425.739C1197.26 425.739 1203.51 419.435 1203.51 409.813ZM1166.17 409.813C1166.17 396.355 1175.79 386.818 1188.87 386.818C1201.95 386.818 1211.49 396.355 1211.49 409.813C1211.49 423.27 1201.95 432.893 1188.87 432.893C1175.79 432.893 1166.17 423.27 1166.17 409.813Z" fill="#575756"/>
<path d="M1250.61 432.383L1238.03 415.092L1225.28 432.383H1216.48L1233.67 409.3L1217.3 387.243H1226.1L1238.11 403.511L1250.03 387.243H1258.67L1242.22 409.3L1259.57 432.383H1250.61Z" fill="#575756"/>
<path d="M1297.55 418.585V412.283H1285.37C1277.56 412.283 1275.34 415.433 1275.34 419.266C1275.34 423.779 1278.96 426.59 1284.96 426.59C1290.88 426.59 1295.57 423.779 1297.55 418.585ZM1305.44 405.127V432.382H1297.96V426.422C1295.33 430.509 1290.47 432.893 1283.65 432.893C1273.78 432.893 1267.53 427.442 1267.53 419.607C1267.53 412.367 1272.05 406.406 1285.05 406.406H1297.55V404.787C1297.55 397.889 1293.68 393.885 1285.87 393.885C1280.69 393.885 1275.42 395.758 1272.05 398.739L1268.76 392.609C1273.28 388.859 1279.78 386.817 1286.77 386.817C1298.7 386.817 1305.44 392.778 1305.44 405.127Z" fill="#575756"/>
<path d="M1346.3 386.817V394.736C1345.64 394.652 1345.06 394.652 1344.49 394.652C1336.02 394.652 1330.75 400.017 1330.75 409.897V432.383H1322.86V387.243H1330.42V394.823C1333.22 389.541 1338.65 386.817 1346.3 386.817Z" fill="#575756"/>
<path d="M1359.43 387.243H1367.32V432.383H1359.43V387.243ZM1358.03 373.273C1358.03 370.293 1360.33 367.909 1363.37 367.909C1366.42 367.909 1368.72 370.208 1368.72 373.104C1368.72 376.169 1366.5 378.555 1363.37 378.555C1360.33 378.555 1358.03 376.256 1358.03 373.273Z" fill="#575756"/>
<path d="M1395.67 383.325V387.243H1408.33V393.97H1395.83V432.383H1387.93V393.97H1380.53V387.243H1387.93V383.241C1387.93 374.467 1393.03 368.677 1402.33 368.677C1405.7 368.677 1408.99 369.527 1411.21 371.315L1408.83 377.533C1407.18 376.257 1405.04 375.403 1402.74 375.403C1398.05 375.403 1395.67 378.13 1395.67 383.325Z" fill="#575756"/>
<path d="M1444.49 418.585V412.283H1432.32C1424.51 412.283 1422.29 415.433 1422.29 419.266C1422.29 423.779 1425.9 426.59 1431.91 426.59C1437.83 426.59 1442.52 423.779 1444.49 418.585ZM1452.39 405.127V432.382H1444.9V426.422C1442.27 430.509 1437.42 432.893 1430.59 432.893C1420.72 432.893 1414.47 427.442 1414.47 419.607C1414.47 412.367 1419 406.406 1431.99 406.406H1444.49V404.787C1444.49 397.889 1440.63 393.885 1432.81 393.885C1427.63 393.885 1422.37 395.758 1419 398.739L1415.71 392.609C1420.23 388.859 1426.73 386.817 1433.72 386.817C1445.64 386.817 1452.39 392.778 1452.39 405.127Z" fill="#575756"/>
<path d="M1503.11 409.813C1503.11 400.187 1496.77 393.97 1488.47 393.97C1480.08 393.97 1473.74 400.187 1473.74 409.813C1473.74 419.435 1480.08 425.739 1488.47 425.739C1496.77 425.739 1503.11 419.435 1503.11 409.813ZM1510.92 369.186V432.382H1503.36V425.227C1499.82 430.338 1494.22 432.893 1487.81 432.893C1475.06 432.893 1465.77 423.61 1465.77 409.813C1465.77 396.015 1475.06 386.818 1487.81 386.818C1493.98 386.818 1499.41 389.201 1503.02 394.057V369.186H1510.92Z" fill="#575756"/>
<path d="M1562.71 409.813C1562.71 400.187 1556.46 393.97 1548.07 393.97C1539.68 393.97 1533.35 400.187 1533.35 409.813C1533.35 419.435 1539.68 425.739 1548.07 425.739C1556.46 425.739 1562.71 419.435 1562.71 409.813ZM1525.37 409.813C1525.37 396.355 1535 386.818 1548.07 386.818C1561.15 386.818 1570.69 396.355 1570.69 409.813C1570.69 423.27 1561.15 432.893 1548.07 432.893C1535 432.893 1525.37 423.27 1525.37 409.813Z" fill="#575756"/>
</svg>
